<svg width="28" height="28" viewBox="0 0 28 28" fill="none" xmlns="http://www.w3.org/2000/svg">
<path d="M6.44645 13.5332C5.42008 13.5332 4.58008 14.3732 4.58008 15.3996C4.58008 16.426 5.42008 17.266 6.44645 17.266C7.47283 17.266 8.31283 16.426 8.31283 15.3996C8.31283 14.3732 7.47283 13.5332 6.44645 13.5332ZM6.44645 16.3332C5.93283 16.3332 5.51283 15.9132 5.51283 15.3996C5.51283 14.886 5.93283 14.466 6.44645 14.466C6.96008 14.466 7.38008 14.886 7.38008 15.3996C7.38008 15.9132 6.96008 16.3332 6.44645 16.3332Z" fill="#1A9E75"/>
<path d="M21.3781 13.5332C20.3517 13.5332 19.5117 14.3732 19.5117 15.3996C19.5117 16.426 20.3517 17.266 21.3781 17.266C22.4045 17.266 23.2445 16.426 23.2445 15.3996C23.2445 14.3732 22.4045 13.5332 21.3781 13.5332ZM21.3781 16.3332C20.8645 16.3332 20.4445 15.9132 20.4445 15.3996C20.4445 14.886 20.8645 14.466 21.3781 14.466C21.8917 14.466 22.3117 14.886 22.3117 15.3996C22.3117 15.9132 21.8917 16.3332 21.3781 16.3332Z" fill="#1A9E75"/>
<path d="M13.7151 5.90318C13.4387 5.89873 13.2117 6.11852 13.2073 6.39494C13.2029 6.67136 13.4227 6.89836 13.6991 6.90281L15.113 6.92559C15.2509 6.92781 15.3769 6.87398 15.4688 6.78495C15.5608 6.69592 15.6186 6.57169 15.6208 6.43383C15.6253 6.15741 15.4055 5.93042 15.129 5.92597L13.7151 5.90318Z" fill="#1A9E75"/>
<path d="M16.2661 11.1133C16.1831 10.7734 16.1778 10.4193 16.2504 10.0771C16.3229 9.73495 16.4716 9.41349 16.6854 9.13659C16.8991 8.8597 17.1724 8.63447 17.4851 8.4776C17.7977 8.32074 18.1417 8.23626 18.4914 8.23043C18.8412 8.2246 19.1877 8.29758 19.5054 8.44395C19.8231 8.59031 20.1038 8.80631 20.3267 9.07593C20.5495 9.34556 20.7088 9.66188 20.7928 10.0015C20.8767 10.341 20.8831 10.6951 20.8116 11.0375L20.3063 10.9319C20.362 10.6654 20.357 10.3897 20.2916 10.1253C20.2263 9.86097 20.1023 9.6147 19.9288 9.4048C19.7553 9.1949 19.5368 9.02674 19.2894 8.91279C19.0421 8.79884 18.7723 8.74203 18.5 8.74657C18.2277 8.7511 17.96 8.81687 17.7166 8.93899C17.4732 9.06111 17.2604 9.23646 17.094 9.45202C16.9276 9.66759 16.8118 9.91785 16.7553 10.1842C16.6988 10.4506 16.703 10.7263 16.7676 10.9909L16.2661 11.1133Z" fill="#1A9E75"/>
<path d="M23.2925 9.80019L22.4989 6.06657C22.1725 4.85295 21.2389 4.2002 19.9789 4.2002H7.84525C6.53888 4.2002 5.79162 4.85382 5.41887 6.06657L4.57888 9.80019H1.3125V10.7338H4.34613V10.7802C2.89975 10.8738 1.77975 12.0866 1.77975 13.5802V20.0666H3.17975V21.4666C3.17975 22.7729 4.20612 23.8002 5.51337 23.8002C6.82062 23.8002 7.847 22.7738 7.847 21.4666V20.0666H19.9806V21.4666C19.9806 22.7729 21.007 23.8002 22.3143 23.8002C23.6215 23.8002 24.6479 22.7738 24.6479 21.4666V20.0666H26.0479V13.5802C26.0479 12.1338 24.9279 10.9202 23.5279 10.7802V10.7338H26.5142V9.80019H23.2942H23.2925ZM6.30612 6.34657C6.58612 5.50657 7.00612 5.13295 7.84612 5.13295H19.9798C20.8661 5.13295 21.3798 5.50657 21.6134 6.29932L22.547 10.7793H5.28062L6.307 6.3457L6.30612 6.34657ZM6.9125 21.4666C6.9125 22.2602 6.30612 22.8666 5.5125 22.8666C4.71887 22.8666 4.1125 22.2602 4.1125 21.4666V20.0666H6.9125V21.4666ZM23.7125 21.4666C23.7125 22.2602 23.1061 22.8666 22.3125 22.8666C21.5189 22.8666 20.9125 22.2602 20.9125 21.4666V20.0666H23.7125V21.4666ZM25.1125 13.5802V19.1338H2.7125V13.5802C2.7125 12.5538 3.5525 11.7138 4.57888 11.7138H23.2452C24.2716 11.7138 25.1125 12.5538 25.1125 13.5802Z" fill="black"/>
</svg>
