<svg width="28" height="28" viewBox="0 0 28 28" fill="none" xmlns="http://www.w3.org/2000/svg">
<path d="M26.3681 18.3972C26.2456 18.056 26.2019 17.9291 26.18 17.8766C26.057 17.5472 25.8318 17.2659 25.5374 17.0738C25.243 16.8817 24.8947 16.789 24.5437 16.8091C24.4781 16.8091 24.4125 16.8135 24.3425 16.8179C23.8 16.8616 23.2663 16.9535 22.75 17.0366C22.3081 17.111 21.8487 17.1854 21.4025 17.2335C20.3817 17.3499 19.3541 17.3966 18.3269 17.3735C17.4615 17.3475 16.5983 17.273 15.7413 17.1504C15.779 16.8466 15.7289 16.5384 15.5969 16.2622C15.4881 16.0395 15.3324 15.8429 15.1407 15.6858C14.9489 15.5288 14.7254 15.415 14.4856 15.3522L10.3381 14.2235C9.6832 14.0486 8.99566 14.0351 8.33437 14.1841L6.54938 14.5822V13.0947C6.54938 12.8627 6.45719 12.6401 6.29309 12.476C6.129 12.3119 5.90644 12.2197 5.67438 12.2197H2.40625C2.17419 12.2197 1.95163 12.3119 1.78753 12.476C1.62344 12.6401 1.53125 12.8627 1.53125 13.0947V24.0322C1.53194 24.2641 1.62435 24.4862 1.7883 24.6502C1.95224 24.8141 2.1744 24.9065 2.40625 24.9072H5.67438C5.90623 24.9065 6.12838 24.8141 6.29233 24.6502C6.45627 24.4862 6.54868 24.2641 6.54938 24.0322V22.886L13.7812 24.1985C14.1133 24.2582 14.4501 24.2875 14.7875 24.286C15.4913 24.2863 16.1888 24.1542 16.8438 23.8966L25.3838 20.5147C25.7932 20.362 26.1261 20.0542 26.3103 19.6579C26.4945 19.2616 26.5153 18.8087 26.3681 18.3972ZM5.67438 24.0322H2.40625V13.0947H5.67438V24.0322ZM25.06 19.701L16.5244 23.0829C15.703 23.4069 14.8074 23.4948 13.9388 23.3366L6.54938 21.9979V15.4791L8.52688 15.0372C9.04962 14.9204 9.59278 14.9309 10.1106 15.0679L14.2538 16.1966C14.3732 16.2261 14.4849 16.2813 14.5808 16.3584C14.6768 16.4355 14.7548 16.5325 14.8094 16.6429C14.8568 16.7407 14.8826 16.8477 14.8848 16.9564C14.8871 17.0652 14.8658 17.1731 14.8225 17.2729C14.7462 17.4391 14.6202 17.5775 14.462 17.6692C14.3037 17.7609 14.1209 17.8012 13.9388 17.7847L10.3425 17.041C10.2294 17.0176 10.1117 17.0399 10.015 17.1031C9.91826 17.1662 9.85042 17.2649 9.82625 17.3779C9.80281 17.4915 9.825 17.6098 9.88803 17.7072C9.95106 17.8046 10.0499 17.8733 10.1631 17.8985L13.7856 18.6466C13.7999 18.6502 13.8147 18.6517 13.8294 18.651C13.8874 18.6581 13.9459 18.6611 14.0044 18.6597C14.2734 18.6599 14.5389 18.5994 14.7813 18.4828C15.0237 18.3661 15.2367 18.1963 15.4044 17.986C16.3635 18.1324 17.3308 18.22 18.3006 18.2485C19.3672 18.2725 20.4343 18.2242 21.4944 18.1041C21.9669 18.0516 22.4394 17.9772 22.8944 17.8985C23.3931 17.8154 23.9094 17.7322 24.4169 17.6885C24.6055 17.6515 24.801 17.6794 24.9717 17.7675C25.1425 17.8557 25.2784 17.999 25.3575 18.1741V18.1785L25.5456 18.6947C25.6137 18.8926 25.6008 19.1093 25.5099 19.2978C25.4189 19.4862 25.2573 19.6311 25.06 19.701Z" fill="#1A9E75"/>
<g clip-path="url(#clip0_1_65702)">
<path fill-rule="evenodd" clip-rule="evenodd" d="M20.5176 3.42868C20.385 3.29298 20.2267 3.18516 20.0519 3.11154C19.8771 3.03792 19.6894 3 19.4997 3C19.31 3 19.1222 3.03792 18.9474 3.11154C18.7726 3.18516 18.6143 3.29298 18.4818 3.42868L17.8565 4.06893C17.722 4.20673 17.5609 4.31581 17.3831 4.38955C17.2052 4.46329 17.0142 4.50016 16.8217 4.49793L15.9266 4.48688C15.7369 4.48461 15.5487 4.5203 15.373 4.59185C15.1973 4.6634 15.0377 4.76937 14.9035 4.90352C14.7694 5.03766 14.6634 5.19728 14.5919 5.37299C14.5203 5.54869 14.4846 5.73693 14.4869 5.92663L14.4973 6.82168C14.4995 7.01421 14.4626 7.2052 14.3889 7.38307C14.3152 7.56094 14.2061 7.72199 14.0683 7.85648L13.4287 8.48178C13.293 8.61431 13.1852 8.77263 13.1115 8.94743C13.0379 9.12224 13 9.31 13 9.49968C13 9.68935 13.0379 9.87711 13.1115 10.0519C13.1852 10.2267 13.293 10.385 13.4287 10.5176L14.0689 11.1429C14.3471 11.4146 14.5025 11.789 14.4979 12.1777L14.4869 13.0727C14.4846 13.2624 14.5203 13.4507 14.5919 13.6264C14.6634 13.8021 14.7694 13.9617 14.9035 14.0958C15.0377 14.23 15.1973 14.3359 15.373 14.4075C15.5487 14.4791 15.7369 14.5147 15.9266 14.5125L16.8217 14.5021C17.0142 14.4998 17.2052 14.5367 17.3831 14.6105C17.5609 14.6842 17.722 14.7933 17.8565 14.9311L18.4818 15.5707C19.0401 16.1427 19.9592 16.1427 20.5176 15.5707L21.1429 14.9304C21.2774 14.7926 21.4384 14.6835 21.6163 14.6098C21.7942 14.5361 21.9851 14.4992 22.1777 14.5014L23.0727 14.5125C23.2624 14.5147 23.4507 14.4791 23.6264 14.4075C23.8021 14.3359 23.9617 14.23 24.0958 14.0958C24.23 13.9617 24.3359 13.8021 24.4075 13.6264C24.4791 13.4507 24.5147 13.2624 24.5125 13.0727L24.5021 12.1777C24.4998 11.9851 24.5367 11.7942 24.6105 11.6163C24.6842 11.4384 24.7933 11.2774 24.9311 11.1429L25.5707 10.5176C26.1427 9.95923 26.1427 9.04013 25.5707 8.48178L24.9304 7.85648C24.7926 7.72199 24.6835 7.56094 24.6098 7.38307C24.5361 7.2052 24.4992 7.01421 24.5014 6.82168L24.5125 5.92663C24.5147 5.73693 24.4791 5.54869 24.4075 5.37299C24.3359 5.19728 24.23 5.03766 24.0958 4.90352C23.9617 4.76937 23.8021 4.6634 23.6264 4.59185C23.4507 4.5203 23.2624 4.48461 23.0727 4.48688L22.1777 4.49728C21.9851 4.49951 21.7942 4.46264 21.6163 4.3889C21.4384 4.31516 21.2774 4.20608 21.1429 4.06828L20.5176 3.42868ZM17.5497 8.52468C17.6777 8.52468 17.8045 8.49946 17.9228 8.45046C18.0411 8.40146 18.1486 8.32964 18.2391 8.23911C18.3296 8.14857 18.4015 8.04108 18.4505 7.92279C18.4995 7.8045 18.5247 7.67771 18.5247 7.54968C18.5247 7.42164 18.4995 7.29485 18.4505 7.17656C18.4015 7.05827 18.3296 6.95078 18.2391 6.86025C18.1486 6.76971 18.0411 6.69789 17.9228 6.64889C17.8045 6.5999 17.6777 6.57468 17.5497 6.57468C17.2911 6.57468 17.0431 6.6774 16.8602 6.86025C16.6774 7.04309 16.5747 7.29109 16.5747 7.54968C16.5747 7.80826 16.6774 8.05626 16.8602 8.23911C17.0431 8.42195 17.2911 8.52468 17.5497 8.52468ZM21.4497 12.4247C21.7083 12.4247 21.9563 12.322 22.1391 12.1391C22.322 11.9563 22.4247 11.7083 22.4247 11.4497C22.4247 11.1911 22.322 10.9431 22.1391 10.7602C21.9563 10.5774 21.7083 10.4747 21.4497 10.4747C21.1911 10.4747 20.9431 10.5774 20.7602 10.7602C20.5774 10.9431 20.4747 11.1911 20.4747 11.4497C20.4747 11.7083 20.5774 11.9563 20.7602 12.1391C20.9431 12.322 21.1911 12.4247 21.4497 12.4247ZM21.9554 7.04398C22.0218 7.11037 22.0745 7.18921 22.1105 7.27598C22.1464 7.36275 22.1649 7.45575 22.1649 7.54968C22.1649 7.6436 22.1464 7.7366 22.1105 7.82337C22.0745 7.91014 22.0218 7.98898 21.9554 8.05538L18.0554 11.9554C17.9213 12.0895 17.7394 12.1648 17.5497 12.1648C17.36 12.1648 17.1781 12.0895 17.044 11.9554C16.9099 11.8213 16.8345 11.6393 16.8345 11.4497C16.8345 11.26 16.9099 11.0781 17.044 10.944L20.944 7.04398C21.0104 6.97755 21.0892 6.92485 21.176 6.8889C21.2627 6.85294 21.3558 6.83444 21.4497 6.83444C21.5436 6.83444 21.6366 6.85294 21.7234 6.8889C21.8101 6.92485 21.889 6.97755 21.9554 7.04398Z" fill="#1A9E75"/>
</g>
<defs>
<clipPath id="clip0_1_65702">
<rect width="13" height="13" fill="white" transform="translate(13 3)"/>
</clipPath>
</defs>
</svg>
