<svg width="27" height="23" viewBox="0 0 27 23" fill="none" xmlns="http://www.w3.org/2000/svg">
<path d="M23.4515 12.447L23.4889 12.9065H23.9499H24.1541C24.6667 12.9065 25.1071 13.0185 25.4011 13.1749C25.7177 13.3433 25.7493 13.4893 25.7492 13.5192V13.5205V13.6151C25.7492 13.645 25.7168 13.7915 25.4001 13.9602C25.1063 14.1168 24.6664 14.2291 24.1541 14.2291H17.3485H17.2493L17.1577 14.2669C14.3755 15.4152 13.3669 17.297 12.5419 18.8363C12.4991 18.9162 12.4568 18.9952 12.4147 19.0731C11.9848 19.8695 11.6074 20.5061 11.0579 20.9587C10.5299 21.3935 9.79778 21.6919 8.59435 21.6919C5.37196 21.6919 3.38426 20.7895 2.18904 19.4047C0.981405 18.0055 0.5 16.0201 0.5 13.6855C0.5 6.33883 5.70844 0.5 12.0038 0.5C17.9405 0.5 22.9013 5.68918 23.4515 12.447ZM8.26988 17.2533H8.76988V16.7533V14.7439V14.2439H8.26988H6.41694H5.91694V14.7439V16.7533V17.2533H6.41694H8.26988Z" fill="white" stroke="black"/>
<path d="M6.5 16.7509V15.5H7.5V16.7509H6.5Z" stroke="#1A9E75"/>
</svg>
