<svg width="28" height="29" viewBox="0 0 28 29" fill="none" xmlns="http://www.w3.org/2000/svg">
<line x1="4.37114e-08" y1="27.833" x2="26.6667" y2="27.833" stroke="#1A9E75"/>
<rect x="1.16602" y="16.167" width="26.3333" height="2" stroke="#1A9E75"/>
<line x1="5.16602" y1="15.667" x2="5.16602" y2="18.3337" stroke="#1A9E75"/>
<line x1="9.83203" y1="15.667" x2="9.83203" y2="18.667" stroke="#1A9E75"/>
<line x1="14.5" y1="15.667" x2="14.5" y2="18.667" stroke="#1A9E75"/>
<line x1="23.832" y1="15.667" x2="23.832" y2="18.667" stroke="#1A9E75"/>
<path d="M15.5 15.5C15.5 13.2909 17.2909 11.5 19.5 11.5C21.7091 11.5 23.5 13.2909 23.5 15.5V27.5H15.5V15.5Z" fill="#1A9E75" stroke="#1A9E75"/>
<rect x="15.5" y="2.5" width="7.66667" height="4" rx="2" stroke="#1A9E75"/>
<line x1="19.5" y1="7" x2="19.5" y2="11.3333" stroke="#1A9E75"/>
<line x1="19.5" y1="-2.18557e-08" x2="19.5" y2="2" stroke="#1A9E75"/>
<rect x="17" y="4" width="1.66667" height="1.66667" fill="#1A9E75"/>
<rect x="20" y="4" width="1.66667" height="1.66667" fill="#1A9E75"/>
</svg>
