<svg width="27" height="25" viewBox="0 0 27 25" fill="none" xmlns="http://www.w3.org/2000/svg">
<path d="M18.9643 0.543457H16.5833C16.3465 0.543457 16.1195 0.629346 15.952 0.782275L14.7884 1.84473C12.8586 0.635742 10.6144 0 8.24999 0H3.7857C2.80106 0 2 0.731396 2 1.63042V3.26084C2 4.15986 2.80106 4.89126 3.7857 4.89126H8.24999C9.18656 4.89126 10.0966 5.08022 10.9286 5.44253V10.5978C10.9286 11.9463 12.1302 13.0435 13.6071 13.0435H14.5V15.4891C14.5 17.7367 16.5027 19.5652 18.9643 19.5652H21.6429V23.3695C21.6429 24.2686 22.4439 25 23.4286 25H25.2143C26.1989 25 27 24.2686 27 23.3695V7.88042C27.0001 3.83482 23.3952 0.543457 18.9643 0.543457ZM8.24999 3.26089H3.7857V1.63042H8.24999C10.1363 1.63042 11.9323 2.10869 13.4999 3.02109L12.1978 4.21001C10.9963 3.58799 9.6461 3.26089 8.24999 3.26089ZM21.6429 17.9348H18.9643C17.4873 17.9348 16.2857 16.8376 16.2857 15.4891V13.0435H18.9643C19.24 13.0435 19.5062 13.0818 19.7567 13.1527C19.5656 13.8239 19.1092 14.4211 18.469 14.8108C18.0588 15.0605 17.9479 15.5667 18.2214 15.9413C18.4951 16.316 19.0494 16.4171 19.4596 16.1674C20.2555 15.6829 20.8717 14.9948 21.2435 14.2063C21.4965 14.5794 21.6429 15.0188 21.6429 15.4891L21.6429 17.9348ZM25.2144 23.3696H23.4286V19.5652H25.2144V23.3696ZM25.2144 17.9348H23.4286V15.4891C23.4286 13.2381 21.4195 11.413 18.9644 11.413H13.6071C13.1148 11.413 12.7143 11.0473 12.7143 10.5978V6.04414L16.9531 2.17388H18.9643C22.4105 2.17388 25.2143 4.73384 25.2143 7.88042L25.2144 17.9348Z" fill="#3F3F3F"/>
<path fill-rule="evenodd" clip-rule="evenodd" d="M3 16.25C1.7595 16.25 0.75 15.2405 0.75 14C0.75 12.7929 2.36325 10.6921 3 10.289C3.63675 10.6921 5.25 12.7929 5.25 14C5.25 15.2405 4.2405 16.25 3 16.25ZM3 9.5C2.25 9.5 0 12.3432 0 14C0 15.6568 1.34325 17 3 17C4.65675 17 6 15.6568 6 14C6 12.3432 3.75 9.5 3 9.5Z" fill="#1A9E75"/>
</svg>
