<svg width="34" height="26" viewBox="0 0 34 26" fill="none" xmlns="http://www.w3.org/2000/svg">
<path d="M1 4.55273H8.86377L11.2584 10.9384M11.2584 10.9384C12.0664 11.0468 13.7299 11.6597 13.9191 13.2443C14.1083 14.8289 14.195 18.5558 14.2147 20.2212H1V17.2057H4.518V14.1903H1V10.9384H11.2584Z" stroke="black"/>
<path d="M12.7346 20.458V23.0833C12.7346 23.6968 12.7119 24.3629 12.2617 24.7798C11.6616 25.3352 10.6223 25.6599 9.80068 25.2548C8.82581 24.7741 8.80273 23.4512 8.80273 22.3643V20.458" stroke="black"/>
<path d="M24.207 10.8495L22.0784 9.93303C20.1276 9.54871 20.1276 11.559 21.3689 12.032L24.6504 13.3919C26.1167 13.6994 26.7001 11.4309 26.8085 10.2582L29.617 13.5693V21.0838C29.617 22.7684 30.6251 25.474 32.0601 24.5916C33.0412 23.9884 32.9887 22.9056 32.9911 21.7539C33 17.4623 33.0078 11.2392 32.9872 11.1156C32.9635 10.9736 32.8591 10.8002 32.8098 10.7312L28.2275 5.85333C27.2106 4.50525 26.3059 5.70551 25.9807 6.47415L24.207 10.8495Z" stroke="black"/>
<circle cx="9.8093" cy="15.6091" r="1.09641" stroke="#1A9E75"/>
<circle cx="5.76091" cy="8.13005" r="1.86247" fill="black"/>
<path d="M16.5776 7.86688L11.1133 9.83708L11.4276 10.7857L12.4431 11.1749L17.1821 9.35061C18.3185 8.83982 17.4964 7.50203 16.5776 7.86688Z" stroke="black"/>
<circle cx="18.4165" cy="11.9135" r="1.06684" stroke="#1A9E75"/>
<path d="M18.416 13.1602V14.759M19.791 16.3578H18.416V14.759M18.416 14.759H19.791" stroke="#1A9E75"/>
<path d="M26.2081 2.57927C26.4648 3.26326 26.4868 4.00338 26.2693 4.63681C26.0518 5.27024 25.6126 5.7451 25.0482 5.95693C24.4839 6.16875 23.8407 6.10018 23.2601 5.76631C22.6795 5.43244 22.2091 4.86062 21.9524 4.17663L24.0802 3.37795L26.2081 2.57927Z" fill="black"/>
<rect x="21.043" y="1.51074" width="4.37533" height="2.13344" transform="rotate(-20.1957 21.043 1.51074)" fill="black"/>
</svg>
