<svg width="28" height="28" viewBox="0 0 28 28" fill="none" xmlns="http://www.w3.org/2000/svg">
<path d="M5.38584 16.3897V8.22852H2.31312C1.03567 8.22852 0 9.26413 0 10.5416V14.0758C0 15.3533 1.03567 16.3898 2.31312 16.3898H5.38584V16.3897Z" fill="#1A9E75"/>
<path d="M17.3555 4.50411L11.9252 7.40851C10.9177 7.94685 9.79323 8.22882 8.65163 8.22882H6.80078V16.3901H8.65163C9.79323 16.3901 10.9178 16.6712 11.9252 17.2104L17.3555 20.1148V20.824H18.7696V3.79492H17.3555V4.50411ZM17.3709 18.5366L12.5849 15.9765C11.3792 15.3314 10.0188 14.9904 8.65163 14.9904H8.19958V9.62762H8.65163C10.0188 9.62762 11.3792 9.2867 12.5849 8.64155L17.3709 6.08234V18.5366Z" fill="#1A9E75"/>
<path d="M20.4022 10.6768H19.2598V13.9418H20.4022V10.6768Z" fill="#1A9E75"/>
<path d="M0.751953 22.2628V23.1694C0.751953 23.7419 1.21592 24.205 1.78845 24.205H3.51624C4.08789 24.205 4.55191 23.7419 4.55191 23.1694V22.6011L6.32499 17.7031H2.1875L0.751953 22.2628Z" fill="#1A9E75"/>
<path d="M28.0007 11.877H23.1387V12.7511H28.0007V11.877Z" fill="#1A9E75"/>
<path d="M26.6503 7.28119L26.2051 6.52832L22.3726 8.79453L22.8177 9.5474L26.6503 7.28119Z" fill="#1A9E75"/>
<path d="M22.375 15.62L26.2074 17.8862L26.6526 17.1342L22.8202 14.8672L22.375 15.62Z" fill="#1A9E75"/>
</svg>
