<svg width="26" height="26" viewBox="0 0 26 26" fill="none" xmlns="http://www.w3.org/2000/svg">
<path d="M3.69336 7.83203H22.305V20.832C22.305 21.7601 21.9364 22.6501 21.2801 23.3063C20.6239 23.9625 19.7339 24.3312 18.8059 24.3312H7.19253C6.26449 24.3312 5.37446 23.9625 4.71824 23.3063C4.06202 22.6501 3.69336 21.7601 3.69336 20.832V7.83203Z" fill="#1A9E75" stroke="#1A9E75" stroke-width="1.2" stroke-miterlimit="10"/>
<path d="M8.86133 10.9308V5.76333C8.86133 4.66578 9.29733 3.61318 10.0734 2.83709C10.8495 2.061 11.9021 1.625 12.9997 1.625C14.0972 1.625 15.1498 2.061 15.9259 2.83709C16.702 3.61318 17.138 4.66578 17.138 5.76333V10.9308" stroke="#1A9E75" stroke-width="1.2" stroke-miterlimit="10"/>
</svg>
