<svg width="25" height="25" viewBox="0 0 25 25" fill="none" xmlns="http://www.w3.org/2000/svg">
<path d="M22.5362 20.5302L3.84725 18.1645C3.47127 18.1181 3.2076 17.7738 3.25399 17.4003L4.39901 8.36222C4.44539 7.98625 4.78963 7.72258 5.16317 7.76896L23.8546 10.1347C24.2305 10.1811 24.4942 10.5253 24.4478 10.8988L23.3028 19.9369C23.254 20.3129 22.9122 20.5766 22.5362 20.5302Z" fill="#1A9E75"/>
<path d="M2.88313 17.4856C2.88313 17.4416 2.88558 17.3952 2.89046 17.3513L4.03548 8.31321C4.06966 8.03489 4.21126 7.78586 4.43343 7.61496C4.65559 7.44407 4.93147 7.36838 5.20979 7.40256L23.9012 9.76829C24.4749 9.84153 24.8851 10.3689 24.8118 10.9426L23.6668 19.9807C23.5936 20.5544 23.0662 20.9646 22.4925 20.8913L3.8011 18.5256C3.52278 18.4914 3.27376 18.3498 3.10286 18.1277C2.95882 17.9421 2.88313 17.7175 2.88313 17.4856ZM24.0867 10.8132C24.0867 10.6545 23.9696 10.5178 23.8084 10.4983L5.11702 8.1301C5.03157 8.12034 4.94856 8.14231 4.88264 8.19358C4.81429 8.24485 4.77278 8.32053 4.76302 8.40598L3.618 17.4441C3.60823 17.5271 3.6302 17.6125 3.68147 17.6784C3.73274 17.7468 3.80843 17.7883 3.89388 17.7981L22.5828 20.1662C22.7562 20.1882 22.9173 20.0637 22.9393 19.8904L24.0843 10.8547C24.0843 10.8401 24.0867 10.8279 24.0867 10.8132Z" fill="#1A9E75"/>
<path d="M21.467 14.6434L2.75119 16.8089C2.37521 16.8529 2.03585 16.5843 1.99191 16.2083L0.944546 7.15803C0.9006 6.78205 1.16916 6.4427 1.54513 6.39875L20.261 4.23322C20.6369 4.18928 20.9763 4.45783 21.0202 4.83381L22.0676 13.8841C22.1115 14.2601 21.8405 14.5994 21.467 14.6434Z" fill="#F0FFFA"/>
<path d="M0.574625 7.08016C0.574625 6.55526 0.970131 6.09871 1.5048 6.03768L20.2206 3.87215C20.7968 3.80623 21.3193 4.21883 21.3852 4.795L22.4325 13.8429C22.4985 14.419 22.0859 14.9415 21.5097 15.0074L2.79386 17.1729C2.21769 17.2388 1.69523 16.8263 1.62931 16.2501L0.581949 7.19979C0.577066 7.16073 0.574625 7.11922 0.574625 7.08016ZM21.7074 13.9625C21.7074 13.9503 21.7074 13.9381 21.705 13.9259L20.6576 4.87557C20.6479 4.79012 20.6064 4.71444 20.538 4.66317C20.4696 4.6119 20.3891 4.58748 20.3036 4.59725L1.59025 6.76278C1.41691 6.78231 1.28996 6.941 1.31193 7.11434L2.35929 16.1646C2.37882 16.338 2.53752 16.4649 2.71086 16.443L21.4267 14.2774C21.5878 14.2603 21.7074 14.1212 21.7074 13.9625Z" fill="#1A9E75"/>
<path d="M5.74041 11.7674L3.44304 12.0335C3.06707 12.0775 2.72771 11.8089 2.68377 11.4329L2.41765 9.13557C2.37371 8.75959 2.64226 8.42024 3.01824 8.37629L5.3156 8.11018C5.69158 8.06623 6.03094 8.33479 6.07488 8.71076L6.34099 11.0081C6.38494 11.3841 6.11638 11.7259 5.74041 11.7674Z" fill="#1A9E75"/>
<path d="M2.04582 9.05477C2.04582 8.52987 2.44133 8.07332 2.97599 8.01229L5.27336 7.74617C5.84953 7.68026 6.37199 8.09285 6.43791 8.66903L6.70402 10.9664C6.76994 11.5426 6.35734 12.065 5.78117 12.1309L3.48381 12.3971C2.90763 12.463 2.38517 12.0504 2.31925 11.4742L2.05314 9.17684C2.04826 9.13533 2.04582 9.09627 2.04582 9.05477ZM5.97892 11.0885C5.97892 11.0763 5.97892 11.064 5.97648 11.0518L5.71037 8.75448C5.69084 8.58114 5.53215 8.45418 5.35881 8.47616L3.06144 8.74227C2.8881 8.7618 2.76115 8.92049 2.78312 9.09383L3.04924 11.3912C3.06877 11.5645 3.22746 11.6915 3.4008 11.6695L5.69816 11.4034C5.8593 11.3863 5.97892 11.2472 5.97892 11.0885Z" fill="#1A9E75"/>
<path d="M7.53588 8.02467C7.53588 7.84156 7.6726 7.68287 7.86058 7.6609L13.8078 6.97242C14.008 6.94801 14.1912 7.09205 14.2131 7.29469C14.2375 7.49488 14.0935 7.67799 13.8909 7.69996L7.94359 8.38844C7.7434 8.41285 7.56029 8.26881 7.53832 8.06617C7.53588 8.05397 7.53588 8.03932 7.53588 8.02467ZM7.49193 9.59449C7.49193 9.41139 7.62865 9.2527 7.81664 9.23072L15.6975 8.31764C15.8977 8.29322 16.0808 8.43727 16.1028 8.6399C16.1272 8.8401 15.9831 9.0232 15.7805 9.04518L7.89965 9.95826C7.69945 9.98268 7.51635 9.83863 7.49437 9.636C7.49193 9.62135 7.49193 9.60914 7.49193 9.59449ZM7.68725 11.2864C7.68725 11.1033 7.82396 10.9446 8.01195 10.9226L12.9192 10.3538C13.1194 10.3294 13.3025 10.4734 13.3245 10.676C13.3489 10.8762 13.2048 11.0593 13.0022 11.0813L8.09496 11.6502C7.89476 11.6746 7.71166 11.5305 7.68969 11.3279C7.68724 11.3132 7.68725 11.2986 7.68725 11.2864Z" fill="#1A9E75"/>
<path d="M18.8933 5.73463C18.8933 5.55153 19.03 5.39283 19.218 5.37086C19.4182 5.34645 19.6013 5.49049 19.6232 5.69313L19.7502 6.79664C19.7746 6.99684 19.6306 7.17994 19.4279 7.20192C19.2253 7.22389 19.0446 7.08229 19.0227 6.87965L18.8957 5.77613C18.8933 5.76393 18.8933 5.74928 18.8933 5.73463ZM19.1447 7.92457C19.1447 7.74147 19.2814 7.58278 19.4694 7.5608C19.6696 7.53639 19.8527 7.68043 19.8747 7.88307L20.0017 8.98658C20.0261 9.18678 19.882 9.36989 19.6794 9.39186C19.4792 9.41627 19.2961 9.27223 19.2741 9.06959L19.1472 7.96608C19.1472 7.95387 19.1447 7.93922 19.1447 7.92457ZM19.3986 10.1145C19.3986 9.93141 19.5354 9.77272 19.7233 9.75074C19.9235 9.72633 20.1066 9.87037 20.1286 10.073L20.2556 11.1765C20.28 11.3767 20.1359 11.5598 19.9333 11.5818C19.7331 11.6062 19.55 11.4622 19.528 11.2595L19.4011 10.156C19.4011 10.1438 19.3986 10.1292 19.3986 10.1145ZM19.6525 12.3045C19.6525 12.1213 19.7893 11.9627 19.9772 11.9407C20.1774 11.9163 20.3605 12.0603 20.3825 12.263L20.5095 13.3665C20.5314 13.5667 20.3898 13.7498 20.1872 13.7717C19.987 13.7962 19.8039 13.6521 19.7819 13.4495L19.655 12.346C19.6525 12.3313 19.6525 12.3191 19.6525 12.3045Z" fill="#1A9E75"/>
<path d="M23.0287 11.3518C23.0742 11.1744 23.246 11.0546 23.4336 11.08C23.6335 11.106 23.7752 11.291 23.7462 11.4927L23.5953 12.5932C23.5692 12.7932 23.3843 12.9348 23.1825 12.9058C22.9808 12.8768 22.8409 12.6948 22.8699 12.4931L23.0208 11.3926C23.0215 11.3802 23.0251 11.366 23.0287 11.3518ZM22.7288 13.5356C22.7743 13.3582 22.9461 13.2384 23.1337 13.2638C23.3336 13.2898 23.4753 13.4748 23.4463 13.6766L23.2954 14.7771C23.2693 14.9771 23.0844 15.1187 22.8826 15.0897C22.6826 15.0636 22.541 14.8787 22.57 14.6769L22.7209 13.5764C22.7239 13.5646 22.7252 13.5498 22.7288 13.5356ZM22.4313 15.72C22.4767 15.5427 22.6486 15.4229 22.8361 15.4482C23.0361 15.4743 23.1777 15.6593 23.1487 15.861L22.9978 16.9615C22.9718 17.1615 22.7868 17.3031 22.5851 17.2741C22.3851 17.2481 22.2435 17.0631 22.2725 16.8614L22.4234 15.7609C22.4264 15.749 22.4277 15.7342 22.4313 15.72ZM22.1338 17.9045C22.1792 17.7271 22.351 17.6073 22.5386 17.6327C22.7386 17.6587 22.8802 17.8437 22.8512 18.0454L22.7003 19.1459C22.6719 19.3453 22.4893 19.4876 22.2875 19.4586C22.0876 19.4325 21.9459 19.2475 21.9749 19.0458L22.1258 17.9453C22.1271 17.9305 22.1301 17.9187 22.1338 17.9045Z" fill="#F0FFFA"/>
</svg>
