<svg width="26" height="26" viewBox="0 0 26 26" fill="none" xmlns="http://www.w3.org/2000/svg">
<path d="M13.0007 9.75C12.426 9.75 11.8749 9.52173 11.4686 9.1154C11.0623 8.70907 10.834 8.15797 10.834 7.58333C10.834 6.38083 11.809 5.41667 13.0007 5.41667C14.2032 5.41667 15.1673 6.38083 15.1673 7.58333C15.1673 8.15797 14.939 8.70907 14.5327 9.1154C14.1264 9.52173 13.5753 9.75 13.0007 9.75ZM13.0007 15.1667C12.426 15.1667 11.8749 14.9384 11.4686 14.5321C11.0623 14.1257 10.834 13.5746 10.834 13C10.834 11.7975 11.809 10.8333 13.0007 10.8333C14.2032 10.8333 15.1673 11.7975 15.1673 13C15.1673 13.5746 14.939 14.1257 14.5327 14.5321C14.1264 14.9384 13.5753 15.1667 13.0007 15.1667ZM13.0007 20.5833C12.426 20.5833 11.8749 20.3551 11.4686 19.9487C11.0623 19.5424 10.834 18.9913 10.834 18.4167C10.834 17.2142 11.809 16.25 13.0007 16.25C14.2032 16.25 15.1673 17.2142 15.1673 18.4167C15.1673 18.9913 14.939 19.5424 14.5327 19.9487C14.1264 20.3551 13.5753 20.5833 13.0007 20.5833ZM21.6673 10.8333H18.4173V9.59833C20.2807 9.11083 21.6673 7.43167 21.6673 5.41667H18.4173V4.33333C18.4173 4.04602 18.3032 3.77047 18.1 3.5673C17.8969 3.36414 17.6213 3.25 17.334 3.25H8.66732C8.38 3.25 8.10445 3.36414 7.90129 3.5673C7.69812 3.77047 7.58398 4.04602 7.58398 4.33333V5.41667H4.33398C4.33398 7.43167 5.72065 9.11083 7.58398 9.59833V10.8333H4.33398C4.33398 12.8483 5.72065 14.5275 7.58398 15.015V16.25H4.33398C4.33398 18.265 5.72065 19.9442 7.58398 20.4317V21.6667C7.58398 21.954 7.69812 22.2295 7.90129 22.4327C8.10445 22.6359 8.38 22.75 8.66732 22.75H17.334C17.6213 22.75 17.8969 22.6359 18.1 22.4327C18.3032 22.2295 18.4173 21.954 18.4173 21.6667V20.4317C20.2807 19.9442 21.6673 18.265 21.6673 16.25H18.4173V15.015C20.2807 14.5275 21.6673 12.8483 21.6673 10.8333Z" fill="#1A9E75"/>
</svg>
